<?xml version="1.0" encoding="UTF-8" standalone="no"?>
<!-- Created with Inkscape (http://www.inkscape.org/) -->

<svg
   xmlns:dc="http://purl.org/dc/elements/1.1/"
   xmlns:cc="http://creativecommons.org/ns#"
   xmlns:rdf="http://www.w3.org/1999/02/22-rdf-syntax-ns#"
   xmlns:svg="http://www.w3.org/2000/svg"
   xmlns="http://www.w3.org/2000/svg"
   xmlns:sodipodi="http://sodipodi.sourceforge.net/DTD/sodipodi-0.dtd"
   xmlns:inkscape="http://www.inkscape.org/namespaces/inkscape"
   width="229.76593"
   height="218.29997"
   id="svg3248"
   version="1.1"
   inkscape:version="0.48.1 r9760"
   sodipodi:docname="Documento nuevo 2">
  <defs
     id="defs3250" />
  <sodipodi:namedview
     id="base"
     pagecolor="#ffffff"
     bordercolor="#666666"
     borderopacity="1.0"
     inkscape:pageopacity="0.0"
     inkscape:pageshadow="2"
     inkscape:zoom="0.35"
     inkscape:cx="150.59725"
     inkscape:cy="66.292845"
     inkscape:document-units="px"
     inkscape:current-layer="layer1"
     showgrid="false"
     fit-margin-top="0"
     fit-margin-left="0"
     fit-margin-right="0"
     fit-margin-bottom="0"
     inkscape:window-width="577"
     inkscape:window-height="453"
     inkscape:window-x="148"
     inkscape:window-y="151"
     inkscape:window-maximized="0" />
  <metadata
     id="metadata3253">
    <rdf:RDF>
      <cc:Work
         rdf:about="">
        <dc:format>image/svg+xml</dc:format>
        <dc:type
           rdf:resource="http://purl.org/dc/dcmitype/StillImage" />
        <dc:title></dc:title>
      </cc:Work>
    </rdf:RDF>
  </metadata>
  <g
     inkscape:label="Capa 1"
     inkscape:groupmode="layer"
     id="layer1"
     transform="translate(-199.40275,-380.35506)">
    <path
       inkscape:connector-curvature="0"
       style="fill:none;stroke:#000000;stroke-width:0.63216108;stroke-linecap:round;stroke-linejoin:round;stroke-miterlimit:4;stroke-opacity:1;stroke-dasharray:none"
       d="m 218.0872,472.10907 c -1.5213,11.04884 -20.1797,1.29935 -13.4914,-6.03452 4.7715,-4.34721 5.5244,-13.81667 13.6711,-7.42214 5.0105,2.96884 8.0518,7.96623 9.5291,13.07327 m -7.9223,-18.95406 c -4.0374,-3.73707 -17.3469,2.94762 -12.4791,-6.55038 0.9016,-8.05127 12.379,-8.93322 19.006,-11.99726 7.4839,2.01459 -0.2151,14.4513 2.6323,20.28777 l 0.075,0.91347 m 1.2901,-19.48219 c -6.0792,3.00739 -16.1588,1.15142 -10.9108,-6.58427 1.4731,-6.68743 7.1426,-11.48616 14.7479,-8.14781 8.5441,-2.76417 14.3994,1.9674 8.7024,9.00629 -1.8453,4.00084 -3.8198,7.95246 -5.7216,11.93177 m 10.4809,-18.18198 c -8.5483,-1.06067 -10.4845,-11.98953 -1.5612,-14.33424 6.3373,-5.85765 15.234,-2.59278 14.183,5.50966 7.6324,8.17123 -1.4724,12.43718 -8.5421,16.7293 m 16.5911,-15.35029 c -9.001,2.69747 -7.984,-4.99501 -4.1423,-9.40827 0.4101,-10.6445 16.7628,-7.65061 18.9938,0.47747 9.5198,5.45731 -0.3503,11.99236 -6.9744,14.59177 -1.8559,0.96271 -3.7342,1.89049 -5.6235,2.79962 m 19.8114,-12.49473 c -10.4126,3.48153 -14.3029,-5.93661 -5.2794,-10.4082 4.7277,-2.57108 14.8361,-5.59241 19.934,0.37604 4.1382,5.8593 6.2989,15.74992 -4.3594,16.60701 -3.1359,0.84813 -6.3367,1.48567 -9.5367,2.10448 m 21.8547,-10.1325 c -5.2434,-2.32659 -11.6696,-8.43517 -2.6721,-10.95881 5.4434,-3.71991 17.285,-7.76204 18.6128,1.50423 1.5959,5.96091 6.6569,14.56132 -4.1919,15.59296 -3.9846,1.10697 -8.0783,1.85862 -12.1709,2.5627 m 23.0963,-8.17818 c -8.8543,-1.90001 -7.2681,-9.51926 0.3534,-11.59516 6.7698,-6.29709 21.9301,0.0494 16.0605,8.92973 1.179,9.77225 -9.5267,11.07326 -17.8012,11.2857 m 23.6769,-5.71166 c -11.4858,-5.08667 0.847,-13.90957 8.9275,-12.61936 8.2835,1.17516 13.3127,13.86014 4.3862,17.40939 -4.9932,2.24363 -10.648,2.84422 -16.1085,3.55141 m 23.5697,-1.57796 c -5.609,-4.07615 -5.7638,-10.80905 3.108,-9.33809 9.4115,-6.71115 18.2134,4.58631 14.7488,12.70875 -0.8946,8.8026 -14.065,1.77722 -20.6746,3.91226 l -1.1768,0.0284 -1.2238,0.0356 m 21.507,5.13753 c -2.0907,-8.83202 13.5573,-11.53795 14.2352,-2.01644 4.0101,6.46342 0.4519,14.33975 -5.3931,18.52004 -7.1974,-0.99674 -11.788,-7.43542 -16.8836,-11.6266 m 16.2079,13.00297 c 1.8169,-6.82864 9.1371,-11.27195 12.7929,-2.70346 8.3125,5.05244 3.9541,19.66412 -7.1597,16.57707 -7.4344,-1.26171 -11.1671,-7.8842 -15.2806,-12.82455 m 10.331,18.75596 c 4.09,-3.59982 15.7129,-11.78353 13.4547,-0.8804 3.0573,7.16218 -0.4391,16.00903 -9.8815,16.83671 -11.1531,5.19584 -18.8834,-5.77229 -14.0269,-14.46773 0.2552,-0.94402 0.5406,-1.88135 0.8483,-2.81264"
       id="path10123" />
    <path
       inkscape:connector-curvature="0"
       sodipodi:nodetypes="csssc"
       id="path10125"
       d="m 408.7851,500.50387 c 1.2881,67.35843 -34.5632,95.64931 -89.8474,95.64931 -55.2842,0 -97.5762,-30.06764 -98.8643,-96.83383 -0.9596,-50.17526 17.1735,-90.92255 100.1524,-89.72676 95.8538,1.38134 88.5593,40.72825 88.5593,90.91128 z"
       style="fill:#d4c27d;fill-opacity:1;stroke:none" />
    <path
       inkscape:connector-curvature="0"
       sodipodi:nodetypes="csc"
       style="fill:none;stroke:#000000;stroke-width:5.00369596;stroke-linecap:round;stroke-linejoin:round;stroke-miterlimit:4;stroke-opacity:1;stroke-dasharray:none"
       d="m 408.7851,491.77542 c 2.2543,79.54305 -34.7848,104.37776 -91.1356,104.37776 -56.3507,0 -97.6582,-26.1106 -98.2202,-109.17674"
       id="path10127" />
    <path
       transform="matrix(0.4508472,0,0,0.4199105,212.3445,270.03055)"
       d="m 342.85715,538.79077 c 0,13.80712 -13.43146,25 -30,25 -16.56855,0 -30,-11.19288 -30,-25 0,-13.80712 13.43145,-25 30,-25 16.56854,0 30,11.19288 30,25 z"
       sodipodi:ry="25"
       sodipodi:rx="30"
       sodipodi:cy="538.79077"
       sodipodi:cx="312.85715"
       id="path10129"
       style="fill:#000000;fill-opacity:1;stroke:#000000;stroke-width:4.0170002;stroke-linecap:round;stroke-linejoin:round;stroke-miterlimit:4;stroke-opacity:1;stroke-dasharray:none"
       sodipodi:type="arc" />
    <path
       sodipodi:type="arc"
       style="fill:#000000;fill-opacity:1;stroke:#000000;stroke-width:4.0170002;stroke-linecap:round;stroke-linejoin:round;stroke-miterlimit:4;stroke-opacity:1;stroke-dasharray:none"
       id="path10131"
       sodipodi:cx="312.85715"
       sodipodi:cy="538.79077"
       sodipodi:rx="30"
       sodipodi:ry="25"
       d="m 342.85715,538.79077 c 0,13.80712 -13.43146,25 -30,25 -16.56855,0 -30,-11.19288 -30,-25 0,-13.80712 13.43145,-25 30,-25 16.56854,0 30,11.19288 30,25 z"
       transform="matrix(0.4508472,0,0,0.4199105,136.3446,269.43068)" />
    <path
       inkscape:connector-curvature="0"
       sodipodi:nodetypes="cczcz"
       id="path10133"
       d="m 342.1396,461.80307 c 10.0073,-2.99966 23.2193,0.55399 23.2193,0.55399 15.7655,4.89909 -8.484,4.70139 -23.5619,11.69015 -15.0304,6.96671 -12.0235,11.5534 -23.5619,11.69013 2.9541,-15.33795 13.8973,-20.93462 23.9045,-23.93427 z"
       style="fill:#000000;fill-opacity:1;fill-rule:evenodd;stroke:none" />
    <path
       inkscape:connector-curvature="0"
       sodipodi:nodetypes="czc"
       id="path10135"
       d="m 256.8957,551.08482 c 17.4227,-7.70325 34.0905,-1.46565 56.5402,-1.41103 22.4574,0.0546 42.1776,-21.01743 62.9896,-10.0718"
       style="fill:none;stroke:#000000;stroke-width:9;stroke-linecap:round;stroke-linejoin:round;stroke-miterlimit:4;stroke-opacity:1;stroke-dasharray:none" />
    <path
       transform="matrix(0.2056105,0.09303147,0.1498564,-0.1471569,280.8821,610.23286)"
       sodipodi:open="true"
       sodipodi:end="4.1057839"
       sodipodi:start="0"
       d="m -110,479.50504 c 0,40.23788 -31.34007,72.85713 -70,72.85713 -38.65993,0 -70,-32.61925 -70,-72.85713 0,-23.88039 11.24385,-46.2448 30.09429,-59.85857"
       sodipodi:ry="72.85714"
       sodipodi:rx="70"
       sodipodi:cy="479.50504"
       sodipodi:cx="-180"
       id="path10137"
       style="fill:none;stroke:#000000;stroke-width:21.38327789;stroke-linecap:round;stroke-linejoin:round;stroke-miterlimit:4;stroke-opacity:1;stroke-dasharray:none"
       sodipodi:type="arc" />
    <path
       inkscape:connector-curvature="0"
       id="path10139"
       d="m 217.5087,486.8599 c 1.2008,-4.94805 0.6145,-14.71649 4.3031,-16.80882 1.9293,4.25474 -3.2082,7.26534 -4.5034,1.98656 9.5543,-2.24038 1.1869,-12.94728 4.9837,-18.50953 5.7331,-1.58004 5.8725,-9.30087 12.6667,-11.35408 3.7773,-1.50988 5.598,-4.7084 -0.1092,-2.72731 -4.2774,2.22928 -11.9651,0.56796 -4.449,-3.24443 6.082,-3.92048 13.8722,-7.52177 21.2079,-4.18552 10.3107,1.87097 -1.5641,-11.49723 0.955,-16.13956 7.7074,0.52886 16.807,6.18767 24.258,-0.2958 4.0519,-3.33557 1.8094,1.88386 4.0937,-2.18001 3.7698,-7.44787 12.351,-4.00286 13.0253,3.04282 3.5929,5.91816 6.842,-9.17405 13.8687,-3.92979 6.1731,0.0787 11.0074,-1.91629 17.1035,10e-4 4.7051,-1.26496 8.7603,-1.42938 10.1696,3.71215 6.8691,2.90435 13.5553,-12.2622 18.5815,-4.55681 1.4957,6.08256 10.575,-0.18984 14.162,5.68727 3.5051,-0.85336 2.5645,10.28206 10.1525,7.48441 3.8202,-2.9606 11.0713,-8.108 10.0383,0.56885 0.2473,6.18894 10.9383,2.48213 8.5798,10.50727 1.4363,7.1262 14.4039,-4.429 11.0914,5.64679 0.1498,3.90937 -3.0396,12.99633 -0.9636,14.1886 5.3951,-0.67863 4.2335,11.84198 1.0899,15.47995 -1.7683,2.81186 -7.0496,6.53647 -0.4581,2.99811 7.6725,-6.39391 19.0436,-2.3428 9.4324,6.00415 -1.5882,1.68661 -3.3173,3.44722 -5.6239,4.25705"
       style="fill:none;stroke:#000000;stroke-width:1.83483362;stroke-linecap:round;stroke-linejoin:round;stroke-miterlimit:4;stroke-opacity:1;stroke-dasharray:none" />
    <path
       inkscape:connector-curvature="0"
       id="path10141"
       d="m 218.7968,482.0609 c 9.1586,1.71993 16.2774,-10.55235 3.9728,-11.51993 -5.1214,-2.62099 -19.0422,-10.99721 -6.2419,-12.45412 8.0394,-2.45616 4.021,-14.43411 11.2072,-12.46164 2.4125,-6.1285 20.0936,-14.70146 21.1883,-11.78305 -7.5419,1.74008 -19.3119,10.99492 -17.2008,-2.91306 0.8232,-14.51912 15.6309,-0.52058 22.9694,0.38895 16.0444,-1.46041 -5.5314,-15.97332 3.5045,-23.90587 4.6084,7.06798 16.479,9.27617 23.0938,15.65315 6.1439,3.86018 -4.3416,-20.60793 1.4353,-6.07928 -0.1196,5.91783 8.7308,22.04734 10.4669,8.00534 -0.8941,-10.4102 -1.5937,-18.73116 6.9933,-25.67175 4.1214,1.99662 9.3809,12.50634 12.5537,2.4018 3.2816,-12.07221 11.2554,3.95925 5.022,3.66805 -6.9879,-2.54878 -7.775,-10.20086 1.1969,-6.2535 6.2488,1.73839 25.6084,4.62681 14.3636,12.0261 12.9249,0.002 17.5234,-10.92738 22.5717,-19.90478 9.8049,-4.68124 -2.9958,15.4413 0.1749,20.37346 4.9922,3.97929 17.2901,-15.16534 15.1005,-0.90081 -5.1522,3.24552 5.3038,-7.28943 7.1975,0.63474 6.0785,11.25747 12.9456,-4.18068 14.022,-3.0454 -12.9771,7.49206 -2.6672,18.83527 9.2401,18.49499 12.0286,0.98249 11.9786,25.40701 -0.2548,13.69593 -3.0202,-9.8803 7.1754,-6.4742 6.2513,1.14978 1.1124,5.3702 -2.8864,20.34185 -0.974,7.21594 2.4363,1.82055 4.6408,27.49865 14.8009,11.44148 -8.0828,1.52376 -10.7343,12.76736 -8.9993,19.37723"
       style="fill:none;stroke:#000000;stroke-width:1.83483303;stroke-linecap:round;stroke-linejoin:round;stroke-miterlimit:4;stroke-opacity:1;stroke-dasharray:none" />
    <path
       inkscape:connector-curvature="0"
       id="path10143"
       d="m 218.7968,477.26194 c 4.1432,-0.96631 20.5307,-0.12583 10.4075,-6.10815 -5.1825,-3.80545 -11.7691,-8.0165 -16.1948,-11.57889 11.25,3.74223 9.395,-9.33012 11.7229,-15.2588 5.7773,-0.34787 1.465,-9.14256 7.6887,-11.54191 1.9631,-2.40105 12.5291,-8.69323 5.171,-4.22443 -3.8617,4.10925 -15.7259,5.85403 -11.4673,-2.69035 3.2103,-7.10824 13.4385,-8.4715 19.5775,-3.8232 3.5893,1.36606 15.995,11.44779 12.6502,1.69702 -0.9769,-6.36988 -6.7105,-14.12654 -4.3572,-19.88358 6.203,2.49037 15.1001,9.42502 20.9762,2.67184 1.5156,-3.35104 4.0149,-8.84945 5.2512,-1.7456 0.4282,7.05022 7.055,5.31878 8.4802,-0.40985 3.241,-7.37703 5.1425,0.32254 7.0879,2.77335 1.6841,-6.90291 9.1678,-9.63845 13.5087,-2.87334 4.1749,3.53701 15.6974,3.16356 16.0546,-2.35719 -3.4579,-0.86818 -12.3328,1.62729 -4.1705,-0.40682 3.4458,-0.1663 13.8905,-3.8227 13.7167,-0.49557 -9.2091,1.3059 -9.5465,16.27238 1.1287,11.21721 7.9518,-3.69338 10.4418,-12.48043 17.1837,-17.33562 5.3428,0.72776 0.6914,14.23221 10.0166,9.05706 6.056,-2.72069 11.3972,1.52725 6.7637,7.08891 -3.6943,7.03125 4.6662,11.3263 9.2999,5.19397 4.4064,-1.62276 10.4562,-12.64089 1.5552,-7.66667 -5.7815,8.65408 10.6219,10.61013 16.7264,12.42719 7.3833,0.0367 18.3889,11.17272 6.1848,12.8216 -6.431,-2.56394 3.8294,-20.00399 4.1867,-7.48695 1.0286,7.44513 -0.7994,14.97605 0.07,22.38606 5.4782,-5.00262 4.0263,10.1573 0.6554,12.3714 -4.939,5.24884 14.5747,-0.25456 5.8928,-0.44796 -4.3145,3.41645 -2.7719,9.68358 -2.1112,14.263"
       style="fill:none;stroke:#000000;stroke-width:1.83483303;stroke-linecap:round;stroke-linejoin:round;stroke-miterlimit:4;stroke-opacity:1;stroke-dasharray:none" />
    <path
       inkscape:connector-curvature="0"
       style="fill:none;stroke:#000000;stroke-width:1.83483303;stroke-linecap:round;stroke-linejoin:round;stroke-miterlimit:4;stroke-opacity:1;stroke-dasharray:none"
       d="m 410.4866,484.46039 c -18.235,18.58681 -12.4342,-9.76183 -3.9728,-11.51994 2.7185,-11.44586 43.2414,-2.0243 6.242,-12.45412 -4.8419,-1.2986 -0.7382,-21.14845 -11.2072,-12.46163 -2.3395,-5.87547 -16.2411,-32.18673 -21.1883,-11.78306 2.6167,-18.83918 -4.1444,17.54133 17.2007,-2.91305 -4.1295,-31.61042 -20.688,13.34898 -22.9694,0.38894 -26.0222,-11.79252 5.9915,-25.52585 -3.5044,-23.90586 -9.3686,-7.25037 -23.8589,26.54985 -23.0938,15.65315 -15.6341,11.38982 -7.5346,-28.37141 -1.4354,-6.07929 3.2955,-20.11476 -3.8893,22.37937 -10.4668,8.00535 2.8757,-13.81981 7.042,-18.8954 -6.9933,-25.67175 6.3155,-21.31696 -5.9655,34.91987 -12.5538,2.4018 1.8613,-41.45793 -8.0092,0.53735 -5.0219,3.66804 7.2993,13.35311 21.5538,16.03112 -1.1969,-6.25349 -8.7496,7.1263 -30.3996,6.50342 -14.3636,12.0261 -13.452,-3.36296 -19.2099,-11.47356 -22.5718,-19.90479 -37.8178,-6.46284 5.6552,13.39053 -0.1748,20.37347 1.6934,-7.96759 -12.7861,-9.19412 -15.1005,-0.90081 3.6214,13.17047 -3.9623,-19.99684 -7.1975,0.63473 -6.2162,16.43089 5.1889,8.75313 -14.0221,-3.04539 11.1505,7.31977 3.3819,33.30032 -9.2401,18.49498 9.0105,-2.69349 -10.5576,25.08044 0.2548,13.69594 -0.1142,-10.12861 -9.2548,12.46918 -6.2512,1.14978 0.5028,6.89079 -2.0049,4.68703 0.9739,7.21593 -8.8551,0.81027 8.5095,35.98734 -14.8009,11.44149 0.9558,-7.16717 -11.6288,0.0957 8.9993,19.37722"
       id="path10145" />
    <path
       inkscape:connector-curvature="0"
       style="fill:#000000;fill-opacity:1;fill-rule:evenodd;stroke:none"
       d="m 280.9995,459.25802 c -10.0072,-2.99965 -23.2192,0.554 -23.2192,0.554 -15.7655,4.89908 8.4839,4.70139 23.5618,11.69014 15.0304,6.96671 12.0236,11.55341 23.562,11.69013 -2.9541,-15.33795 -13.8973,-20.93462 -23.9046,-23.93427 z"
       id="path10147"
       sodipodi:nodetypes="cczcz" />
    <path
       inkscape:connector-curvature="0"
       id="path10149"
       d="m 218.0872,472.10907 c 0.1987,24.56048 -26.4347,26.11797 -13.4914,-6.03452 3.0467,-8.14742 6.1447,-13.65159 13.6711,-7.42214 2.9567,-18.34656 8.3152,8.38073 9.5291,13.07327 m -7.9223,-18.95406 c 1.2025,-44.45213 -25.7963,7.90115 -12.4791,-6.55038 14.3354,2.14662 -7.2296,-9.691 19.006,-11.99726 10.5769,-5.54472 -3.9439,14.72228 2.6323,20.28777 8.3795,4.52306 -1.8127,-11.35029 0.075,0.91347 m 1.2901,-19.48219 c 1.5504,-3.17877 4.6586,-6.61048 -10.9108,-6.58427 -0.1666,8.31401 6.1597,-12.06736 14.7479,-8.14781 22.0587,24.42429 20.8063,-4.03186 8.7024,9.00629 -25.1129,13.29935 -3.7148,9.8877 -5.7216,11.93177 m 10.4809,-18.18198 c -37.9757,6.70521 -38.5615,-6.9408 -1.5612,-14.33424 6.5072,-11.56011 6.7094,6.46707 14.183,5.50966 4.3439,12.87933 9.146,14.87345 -8.5421,16.7293 m 16.5911,-15.35029 c -23.0762,-3.36325 -1.2487,-2.04606 -4.1423,-9.40827 11.7107,9.70251 18.603,-5.87362 18.9938,0.47747 11.9131,-24.46289 -2.1298,4.92512 -6.9744,14.59177 0.071,0.52313 0.1719,2.08846 -5.6235,2.79962 m 19.8114,-12.49473 c -32.3717,-13.38788 -24.0882,-15.02757 -5.2794,-10.4082 17.3594,-26.63816 21.7384,-29.08301 19.934,0.37604 32.5447,33.75084 35.788,15.59655 -4.3594,16.60701 -5.6696,-0.35418 3.0202,3.7077 -9.5367,2.10448 m 21.8547,-10.1325 c -16.0435,13.71554 0.7331,-21.62211 -2.6721,-10.95881 18.9006,-20.45236 7.4781,-19.28284 18.6128,1.50423 9.9206,-5.01667 2.7016,6.12873 -4.1919,15.59296 1.9628,-5.71194 -6.1442,4.59616 -12.1709,2.5627 m 23.0963,-8.17818 c -7.8511,2.19947 -2.3986,-15.80433 0.3534,-11.59516 2.5549,0.13225 8.172,1.27435 16.0605,8.92973 19.0916,37.85644 -4.9865,14.17259 -17.8012,11.2857 m 23.6769,-5.71166 c -2.0835,-20.63962 -8.4697,-6.17009 8.9275,-12.61936 3.0922,0.0142 27.3399,-17.17176 4.3862,17.40939 -18.2021,-7.25167 -3.8323,-5.0474 -16.1085,3.55141 m 23.5697,-1.57796 c -17.8489,14.59877 -13.2596,8.83375 3.108,-9.33809 11.6543,-9.10821 24.0371,8.84059 14.7488,12.70875 -18.0326,-1.19091 -22.2892,26.88167 -20.6746,3.91226 -4.2706,-7.5103 -11.3422,13.90361 -1.1768,0.0284 -2.9722,-18.61685 9.3828,-0.50142 -1.2238,0.0356 m 21.507,5.13753 c -2.0028,-9.63855 13.6957,-42.091 14.2352,-2.01644 16.8009,20.67202 -4.9298,19.95773 -5.3931,18.52004 -12.3489,-2.30734 -7.1299,-19.30756 -16.8836,-11.6266 m 16.2079,13.00297 c 0.9184,-7.45925 18.6624,-9.39086 12.7929,-2.70346 27.4403,47.6081 -23.5659,-3.44293 -7.1597,16.57707 5.3909,13.41212 -29.4297,-12.75539 -15.2806,-12.82455 m 10.331,18.75596 c -17.877,12.96536 4.2711,3.72337 13.4547,-0.8804 8.0067,-3.66731 6.4281,-8.96051 -9.8815,16.83671 -10.4632,3.37253 -18.0563,-8.29111 -14.0269,-14.46773 0.7742,18.0541 -5.0482,-18.94243 0.8483,-2.81264"
       style="fill:none;stroke:#000000;stroke-width:0.63216108;stroke-linecap:round;stroke-linejoin:round;stroke-miterlimit:4;stroke-opacity:1;stroke-dasharray:none" />
    <path
       inkscape:connector-curvature="0"
       style="fill:none;stroke:#000000;stroke-width:0.63216108;stroke-linecap:round;stroke-linejoin:round;stroke-miterlimit:4;stroke-opacity:1;stroke-dasharray:none"
       d="m 218.0872,472.10907 c 3.8862,21.37194 -30.8162,14.64959 -13.4914,-6.03452 4.5402,-11.22502 8.2435,-33.44376 13.6711,-7.42214 -1.4811,-9.64726 3.2995,2.96745 9.5291,13.07327 m -7.9223,-18.95406 c 9.2242,-56.32423 -16.292,18.11624 -12.4791,-6.55038 18.6627,2.45881 -9.9677,-7.75327 19.006,-11.99726 9.0137,-7.49759 5.8556,17.94431 2.6323,20.28777 -11.7747,12.28766 -3.5131,-9.87423 0.075,0.91347 m 1.2901,-19.48219 c 1.7434,1.20499 -23.8079,-7.98162 -10.9108,-6.58427 -2.9663,1.79448 8.9935,-14.39085 14.7479,-8.14781 24.9657,15.37598 19.5229,-7.16384 8.7024,9.00629 -20.6104,12.94055 -5.0353,9.77707 -5.7216,11.93177 m 10.4809,-18.18198 c -34.3093,-8.22531 -73.7521,-4.22409 -1.5612,-14.33424 5.7383,-4.94764 9.2381,7.28414 14.183,5.50966 -44.1699,-5.59428 -6.8595,14.74843 -8.5421,16.7293 m 16.5911,-15.35029 c -21.9458,2.40074 2.4754,5.11913 -4.1423,-9.40827 8.6228,14.89147 4.2539,-4.02952 18.9938,0.47747 9.7753,-54.20731 -3.7086,5.94504 -6.9744,14.59177 -27.4869,21.24932 0.025,16.15489 -5.6235,2.79962 m 19.8114,-12.49473 c -34.4433,-11.17198 -48.6092,-11.98883 -5.2794,-10.4082 13.8218,-30.86107 13.3471,-25.31503 19.934,0.37604 22.2582,16.95527 40.2434,18.90408 -4.3594,16.60701 3.7663,7.92125 3.5135,7.9116 -9.5367,2.10448 m 21.8547,-10.1325 c -28.3311,26.66796 2.5753,-37.23694 -2.6721,-10.95881 40.2502,-21.80787 16.4327,-30.2177 18.6128,1.50423 18.5666,-4.98492 3.46,7.65534 -4.1919,15.59296 14.9062,-27.17359 -12.5466,16.6708 -12.1709,2.5627 m 23.0963,-8.17818 c -11.8552,15.85473 6.3393,-28.89011 0.3534,-11.59516 3.365,-0.45095 -0.8206,-3.66467 16.0605,8.92973 22.3363,38.29798 -13.5025,9.78555 -17.8012,11.2857 m 23.6769,-5.71166 c -3.3087,-29.27581 -10.6222,-3.864 8.9275,-12.61936 4.8204,22.82548 19.3644,-10.96641 4.3862,17.40939 -19.2107,-4.9005 -14.5682,-22.96744 -16.1085,3.55141 m 23.5697,-1.57796 c -2.4184,9.79735 -37.3174,61.6235 3.108,-9.33809 13.3054,-10.0765 26.4769,9.42123 14.7488,12.70875 -19.2016,7.62328 -30.197,32.22414 -20.6746,3.91226 -4.3671,-32.14776 -28.0983,11.13436 -1.1768,0.0284 -0.6581,-19.2737 20.341,-6.74709 -1.2238,0.0356 m 21.507,5.13753 c 5.1818,-6.50465 11.6888,-37.67254 14.2352,-2.01644 15.2703,10.45177 1.2704,9.85579 -5.3931,18.52004 -23.8293,-11.06306 -7.0554,-9.47485 -16.8836,-11.6266 m 16.2079,13.00297 c 1.2001,-7.5089 24.7825,-4.20036 12.7929,-2.70346 30.7173,43.23481 -30.8251,10.41569 -7.1597,16.57707 14.0413,12.6762 -2.3467,-12.58347 -15.2806,-12.82455 m 10.331,18.75596 c -18.906,30.95796 -6.294,-7.80619 13.4547,-0.8804 16.3418,-12.22191 6.2105,-5.4018 -9.8815,16.83671 -28.2823,-16.16678 -29.2788,0.77235 -14.0269,-14.46773 9.9364,6.71112 3.3992,-14.81674 0.8483,-2.81264"
       id="path10151" />
  </g>
</svg>
